<?xml version="1.0" standalone="no"?>
<!DOCTYPE svg PUBLIC "-//W3C//DTD SVG 20010904//EN"
 "http://www.w3.org/TR/2001/REC-SVG-20010904/DTD/svg10.dtd">
<svg version="1.0" xmlns="http://www.w3.org/2000/svg"
 width="128.000000pt" height="128.000000pt" viewBox="0 0 128.000000 128.000000"
 preserveAspectRatio="xMidYMid meet">

<g transform="translate(0.000000,128.000000) scale(0.100000,-0.100000)"
fill="#000000" stroke="none">
<path d="M510 1166 c-63 -23 -188 -68 -277 -100 l-163 -58 0 -83 0 -82 285
-101 285 -102 285 102 285 101 0 84 c0 45 -2 83 -4 83 -2 0 -129 45 -281 100
-153 55 -283 100 -289 99 -6 0 -63 -19 -126 -43z"/>
<path d="M72 659 l3 -103 270 -97 c149 -54 281 -98 295 -98 14 0 147 44 295
98 l270 97 3 103 c2 81 0 102 -10 99 -7 -3 -136 -49 -285 -102 l-273 -98 -273
98 c-149 53 -278 99 -285 102 -10 3 -12 -18 -10 -99z"/>
<path d="M70 371 l0 -99 30 -11 c17 -5 145 -51 285 -102 l255 -91 255 91 c140
51 268 97 285 102 l30 11 0 99 c0 54 -4 99 -9 99 -5 0 -133 -45 -285 -99
l-276 -99 -276 99 c-151 54 -279 99 -284 99 -6 0 -10 -43 -10 -99z"/>
</g>
</svg>
